<?xml version="1.0" encoding="UTF-8"?><svg id="Layer_1" xmlns="http://www.w3.org/2000/svg" xmlns:xlink="http://www.w3.org/1999/xlink" viewBox="0 0 200 200"><defs><style>.cls-1{fill:url(#linear-gradient);}.cls-1,.cls-2,.cls-3{stroke-width:0px;}.cls-2{fill:url(#linear-gradient-2);}.cls-3{fill:url(#linear-gradient-3);}</style><linearGradient id="linear-gradient" x1="151.12" y1="138.59" x2="14.4" y2="59.65" gradientUnits="userSpaceOnUse"><stop offset="0" stop-color="#17b8e8"/><stop offset=".16" stop-color="#158fda"/><stop offset=".36" stop-color="#1260cb"/><stop offset=".46" stop-color="#124ec6"/><stop offset="1" stop-color="#0a2d91"/></linearGradient><linearGradient id="linear-gradient-2" x1="129.64" y1="118.83" x2="61.92" y2="79.73" xlink:href="#linear-gradient"/><linearGradient id="linear-gradient-3" x1="107.16" y1="100.88" x2="67.75" y2="78.13" xlink:href="#linear-gradient"/></defs><path class="cls-1" d="m80.55,180.24h-15.41v-9.48h15.41c39.22,0,71.13-31.91,71.13-71.13S119.77,28.48,80.55,28.48h-42.68v-9.48h42.68c44.45,0,80.62,36.17,80.62,80.62s-36.17,80.62-80.62,80.62Z"/><path class="cls-2" d="m94.79,149.8l-2.59-9.12c18.27-5.18,31.03-22.07,31.03-41.06,0-23.53-19.14-42.68-42.68-42.68v-9.48c28.76,0,52.16,23.4,52.16,52.16,0,23.21-15.59,43.85-37.92,50.18Z"/><path class="cls-3" d="m101.66,110.41l-8.44-4.32c1.02-1.99,1.56-4.23,1.56-6.47,0-7.84-6.38-14.23-14.23-14.23-3.07,0-6.11,1.02-8.56,2.86l-5.71-7.57c4.08-3.08,9.15-4.77,14.27-4.77,13.07,0,23.71,10.64,23.71,23.71,0,3.73-.9,7.47-2.6,10.79Z"/></svg>