<?xml version="1.0" encoding="UTF-8"?><svg id="Layer_2" xmlns="http://www.w3.org/2000/svg" xmlns:xlink="http://www.w3.org/1999/xlink" viewBox="0 0 1606.56 235.87"><defs><style>.cls-1{fill:url(#linear-gradient-3);}.cls-2{fill:url(#linear-gradient-2);}.cls-3{fill:url(#linear-gradient);}.cls-4{fill:#fff;}</style><linearGradient id="linear-gradient" x1="165.67" y1="174.94" x2="-34.33" y2="59.46" gradientUnits="userSpaceOnUse"><stop offset="0" stop-color="#17b8e8"/><stop offset=".16" stop-color="#158fda"/><stop offset=".36" stop-color="#1260cb"/><stop offset=".46" stop-color="#124ec6"/><stop offset="1" stop-color="#0a2d91"/></linearGradient><linearGradient id="linear-gradient-2" x1="134.25" y1="146.04" x2="35.18" y2="88.84" xlink:href="#linear-gradient"/><linearGradient id="linear-gradient-3" x1="101.37" y1="119.78" x2="43.72" y2="86.49" xlink:href="#linear-gradient"/></defs><g id="Layer_1-2"><path class="cls-3" d="M62.44,235.87h-22.55v-13.87h22.55c57.38,0,104.06-46.68,104.06-104.06S119.81,13.87,62.44,13.87H0V0h62.44c65.03,0,117.93,52.91,117.93,117.93s-52.91,117.93-117.93,117.93Z"/><path class="cls-2" d="M83.27,191.34l-3.79-13.35c26.72-7.58,45.39-32.28,45.39-60.06,0-34.43-28.01-62.43-62.43-62.44v-13.87c42.08,0,76.31,34.23,76.31,76.31,0,33.95-22.81,64.14-55.47,73.41Z"/><path class="cls-1" d="M93.32,133.72l-12.35-6.32c1.49-2.92,2.28-6.19,2.28-9.47,0-11.48-9.34-20.81-20.81-20.81-4.49,0-8.94,1.49-12.52,4.19l-8.35-11.08c5.98-4.5,13.39-6.98,20.87-6.98,19.13,0,34.69,15.56,34.69,34.69,0,5.46-1.31,10.92-3.8,15.79Z"/><path class="cls-4" d="M281.12,39.54h43.06c56.05,0,82.48,34.63,82.48,79.98v2.05c0,45.12-25.97,80.89-82.94,80.89h-42.61V39.54ZM323.27,186.28c41.92,0,62.89-25.06,62.89-64.94v-1.82c0-37.6-18.23-64.03-63.12-64.03h-22.1v130.79h22.33Z"/><path class="cls-4" d="M457.93,39.54h19.82v162.92h-19.82V39.54Z"/><path class="cls-4" d="M527.43,152.79h19.14c2.51,19.37,10.25,35.77,43.06,35.77,20.96,0,37.14-12.3,37.14-30.76s-8.43-26.2-39.42-31.22c-34.18-5.24-54.46-15.95-54.46-44.89,0-25.06,21.65-44.2,52.41-44.2,32.58,0,52.86,15.95,56.05,44.89h-17.77c-3.87-20.51-15.72-28.94-38.28-28.94s-33.95,11.16-33.95,26.43,5.92,24.15,39.19,29.17c36.23,5.7,55.37,16.63,55.37,47.39,0,27.34-23.93,48.08-56.28,48.08-43.52,0-59.24-23.92-62.2-51.72Z"/><path class="cls-4" d="M724.75,55.72h-47.39v-16.18h114.61v16.18h-47.39v146.74h-19.83V55.72Z"/><path class="cls-4" d="M837.31,39.54h19.82v162.92h-19.82V39.54Z"/><path class="cls-4" d="M916.38,39.54h19.82v146.74h74.51v16.18h-94.33V39.54Z"/><path class="cls-4" d="M1055.37,39.54h19.82v146.74h74.51v16.18h-94.33V39.54Z"/><path class="cls-4" d="M1194.36,39.54h95.02v16.18h-75.19v55.37h60.61v16.18h-60.61v59.01h79.29v16.18h-99.12V39.54Z"/><path class="cls-4" d="M1340.42,39.54h48.99c31.22,0,56.96,12.76,56.96,45.34v.91c0,26.89-18,40.1-40.33,44.43l49.9,72.23h-22.1l-48.53-70.86h-25.07v70.86h-19.82V39.54ZM1390.77,115.88c23.24,0,35.77-10.03,35.77-30.08v-.91c0-22.1-13.67-29.39-35.77-29.39h-30.53v60.38h30.53Z"/><path class="cls-4" d="M1535.24,131.37l-54.46-91.83h22.33l42.61,75.65,41.01-75.65h19.82l-51.5,92.05v70.86h-19.82v-71.09Z"/></g></svg>